<svg version="1.1" viewBox="0.0 0.0 1024.0 1024.0" fill="none" stroke="none" stroke-linecap="square" stroke-miterlimit="10" xmlns:xlink="http://www.w3.org/1999/xlink" xmlns="http://www.w3.org/2000/svg"><clipPath id="p.0"><path d="m0 0l1024.0 0l0 1024.0l-1024.0 0l0 -1024.0z" clip-rule="nonzero"/></clipPath><g clip-path="url(#p.0)"><path fill="#000000" fill-opacity="0.0" d="m0 0l1024.0 0l0 1024.0l-1024.0 0z" fill-rule="evenodd"/><path fill="#d2d2d2" d="m11.968504 512.0l0 0c0 -276.1424 223.87172 -500.0 500.0315 -500.0l0 0c132.61658 0 259.80157 52.67842 353.57568 146.44661c93.77405 93.76819 146.45581 220.94514 146.45581 353.5534l0 0c0 276.1424 -223.8717 500.0 -500.0315 500.0l0 0c-276.1598 0 -500.0315 -223.8576 -500.0315 -500.0z" fill-rule="evenodd"/><path stroke="#d2d2d2" stroke-width="24.0" stroke-linejoin="round" stroke-linecap="butt" d="m11.968504 512.0l0 0c0 -276.1424 223.87172 -500.0 500.0315 -500.0l0 0c132.61658 0 259.80157 52.67842 353.57568 146.44661c93.77405 93.76819 146.45581 220.94514 146.45581 353.5534l0 0c0 276.1424 -223.8717 500.0 -500.0315 500.0l0 0c-276.1598 0 -500.0315 -223.8576 -500.0315 -500.0z" fill-rule="evenodd"/><path fill="#dd524d" d="m39.55643 512.0l0 0c0 -260.92194 211.51901 -472.44095 472.44095 -472.44095l0 0c125.29913 0 245.46631 49.774883 334.06622 138.37476c88.59985 88.59985 138.3747 208.76706 138.3747 334.0662l0 0c0 260.92194 -211.51898 472.44092 -472.44092 472.44092l0 0c-260.92194 0 -472.44095 -211.51898 -472.44095 -472.44092z" fill-rule="evenodd"/><g filter="url(#shadowFilter-p.1)"><use xlink:href="#p.1" transform=""/></g><defs><filter id="shadowFilter-p.1" filterUnits="userSpaceOnUse"><feGaussianBlur in="SourceAlpha" stdDeviation="2.0" result="blur"/><feComponentTransfer in="blur" color-interpolation-filters="sRGB"><feFuncR type="linear" slope="0" intercept="0.18039216"/><feFuncG type="linear" slope="0" intercept="0.24705882"/><feFuncB type="linear" slope="0" intercept="0.34901962"/><feFuncA type="linear" slope="0.25" intercept="0"/></feComponentTransfer></filter></defs><g id="p.1"><path fill="#d2d2d2" d="m465.9234 518.10156l92.14868 0l0 267.1328l-92.14868 0z" fill-rule="evenodd"/><path stroke="#d2d2d2" stroke-width="2.0" stroke-linejoin="round" stroke-linecap="butt" d="m465.9234 518.10156l92.14868 0l0 267.1328l-92.14868 0z" fill-rule="evenodd"/></g><g filter="url(#shadowFilter-p.2)"><use xlink:href="#p.2" transform=""/></g><defs><filter id="shadowFilter-p.2" filterUnits="userSpaceOnUse"><feGaussianBlur in="SourceAlpha" stdDeviation="2.0" result="blur"/><feComponentTransfer in="blur" color-interpolation-filters="sRGB"><feFuncR type="linear" slope="0" intercept="0.18039216"/><feFuncG type="linear" slope="0" intercept="0.24705882"/><feFuncB type="linear" slope="0" intercept="0.34901962"/><feFuncA type="linear" slope="0.25" intercept="0"/></feComponentTransfer></filter></defs><g id="p.2"><path fill="#d2d2d2" d="m558.07227 785.2344l-22.878906 46.337036l-46.39087 0l-22.878906 -46.337036z" fill-rule="evenodd"/><path stroke="#d2d2d2" stroke-width="2.0" stroke-linejoin="round" stroke-linecap="butt" d="m558.07227 785.2344l-22.878906 46.337036l-46.39087 0l-22.878906 -46.337036z" fill-rule="evenodd"/></g><g filter="url(#shadowFilter-p.3)"><use xlink:href="#p.3" transform=""/></g><defs><filter id="shadowFilter-p.3" filterUnits="userSpaceOnUse"><feGaussianBlur in="SourceAlpha" stdDeviation="2.0" result="blur"/><feComponentTransfer in="blur" color-interpolation-filters="sRGB"><feFuncR type="linear" slope="0" intercept="0.18039216"/><feFuncG type="linear" slope="0" intercept="0.24705882"/><feFuncB type="linear" slope="0" intercept="0.34901962"/><feFuncA type="linear" slope="0.25" intercept="0"/></feComponentTransfer></filter></defs><g id="p.3"><path fill="#d2d2d2" d="m465.92358 518.10156l22.878906 -46.337006l46.39087 0l22.878906 46.337006z" fill-rule="evenodd"/><path stroke="#d2d2d2" stroke-width="2.0" stroke-linejoin="round" stroke-linecap="butt" d="m465.92358 518.10156l22.878906 -46.337006l46.39087 0l22.878906 46.337006z" fill-rule="evenodd"/></g><g filter="url(#shadowFilter-p.4)"><use xlink:href="#p.4" transform=""/></g><defs><filter id="shadowFilter-p.4" filterUnits="userSpaceOnUse"><feGaussianBlur in="SourceAlpha" stdDeviation="2.0" result="blur"/><feComponentTransfer in="blur" color-interpolation-filters="sRGB"><feFuncR type="linear" slope="0" intercept="0.18039216"/><feFuncG type="linear" slope="0" intercept="0.24705882"/><feFuncB type="linear" slope="0" intercept="0.34901962"/><feFuncA type="linear" slope="0.25" intercept="0"/></feComponentTransfer></filter></defs><g id="p.4"><path fill="#d2d2d2" d="m488.96057 338.31396l46.07434 0l0 133.45059l-46.07434 0z" fill-rule="evenodd"/><path stroke="#d2d2d2" stroke-width="2.0" stroke-linejoin="round" stroke-linecap="butt" d="m488.96057 338.31396l46.07434 0l0 133.45059l-46.07434 0z" fill-rule="evenodd"/></g><g filter="url(#shadowFilter-p.5)"><use xlink:href="#p.5" transform=""/></g><defs><filter id="shadowFilter-p.5" filterUnits="userSpaceOnUse"><feGaussianBlur in="SourceAlpha" stdDeviation="2.0" result="blur"/><feComponentTransfer in="blur" color-interpolation-filters="sRGB"><feFuncR type="linear" slope="0" intercept="0.18039216"/><feFuncG type="linear" slope="0" intercept="0.24705882"/><feFuncB type="linear" slope="0" intercept="0.34901962"/><feFuncA type="linear" slope="0.25" intercept="0"/></feComponentTransfer></filter></defs><g id="p.5"><path fill="#d2d2d2" d="m477.442 176.82918l69.11148 0l0 137.6209l-69.11148 0z" fill-rule="evenodd"/><path stroke="#d2d2d2" stroke-width="2.0" stroke-linejoin="round" stroke-linecap="butt" d="m477.442 176.82918l69.11148 0l0 137.6209l-69.11148 0z" fill-rule="evenodd"/></g><g filter="url(#shadowFilter-p.6)"><use xlink:href="#p.6" transform=""/></g><defs><filter id="shadowFilter-p.6" filterUnits="userSpaceOnUse"><feGaussianBlur in="SourceAlpha" stdDeviation="2.0" result="blur"/><feComponentTransfer in="blur" color-interpolation-filters="sRGB"><feFuncR type="linear" slope="0" intercept="0.18039216"/><feFuncG type="linear" slope="0" intercept="0.24705882"/><feFuncB type="linear" slope="0" intercept="0.34901962"/><feFuncA type="linear" slope="0.25" intercept="0"/></feComponentTransfer></filter></defs><g id="p.6"><path fill="#d2d2d2" d="m546.55347 314.4504l-11.610107 23.863556l-45.891266 0l-11.610107 -23.863556z" fill-rule="evenodd"/><path stroke="#d2d2d2" stroke-width="2.0" stroke-linejoin="round" stroke-linecap="butt" d="m546.55347 314.4504l-11.610107 23.863556l-45.891266 0l-11.610107 -23.863556z" fill-rule="evenodd"/></g><g filter="url(#shadowFilter-p.7)"><use xlink:href="#p.7" transform=""/></g><defs><filter id="shadowFilter-p.7" filterUnits="userSpaceOnUse"><feGaussianBlur in="SourceAlpha" stdDeviation="2.0" result="blur"/><feComponentTransfer in="blur" color-interpolation-filters="sRGB"><feFuncR type="linear" slope="0" intercept="0.18039216"/><feFuncG type="linear" slope="0" intercept="0.24705882"/><feFuncB type="linear" slope="0" intercept="0.34901962"/><feFuncA type="linear" slope="0.25" intercept="0"/></feComponentTransfer></filter></defs><g id="p.7"><path fill="#d2d2d2" d="m477.4421 176.82948l11.782654 -23.863556l45.546234 0l11.782593 23.863556z" fill-rule="evenodd"/><path stroke="#d2d2d2" stroke-width="2.0" stroke-linejoin="round" stroke-linecap="butt" d="m477.4421 176.82948l11.782654 -23.863556l45.546234 0l11.782593 23.863556z" fill-rule="evenodd"/></g><g filter="url(#shadowFilter-p.8)"><use xlink:href="#p.8" transform=""/></g><defs><filter id="shadowFilter-p.8" filterUnits="userSpaceOnUse"><feGaussianBlur in="SourceAlpha" stdDeviation="2.0" result="blur"/><feComponentTransfer in="blur" color-interpolation-filters="sRGB"><feFuncR type="linear" slope="0" intercept="0.18039216"/><feFuncG type="linear" slope="0" intercept="0.24705882"/><feFuncB type="linear" slope="0" intercept="0.34901962"/><feFuncA type="linear" slope="0.25" intercept="0"/></feComponentTransfer></filter></defs><g id="p.8"><path fill="#d2d2d2" d="m488.96057 152.96593l23.03717 -18.920944l0 0l23.03717 18.920944z" fill-rule="evenodd"/><path stroke="#d2d2d2" stroke-width="2.0" stroke-linejoin="round" stroke-linecap="butt" d="m488.96057 152.96593l23.03717 -18.920944l0 0l23.03717 18.920944z" fill-rule="evenodd"/></g><g filter="url(#shadowFilter-p.9)"><use xlink:href="#p.9" transform=""/></g><defs><filter id="shadowFilter-p.9" filterUnits="userSpaceOnUse"><feGaussianBlur in="SourceAlpha" stdDeviation="2.0" result="blur"/><feComponentTransfer in="blur" color-interpolation-filters="sRGB"><feFuncR type="linear" slope="0" intercept="0.18039216"/><feFuncG type="linear" slope="0" intercept="0.24705882"/><feFuncB type="linear" slope="0" intercept="0.34901962"/><feFuncA type="linear" slope="0.25" intercept="0"/></feComponentTransfer></filter></defs><g id="p.9"><path fill="#d2d2d2" d="m529.0528 843.55133l-34.103943 0.05718994l-5.985199 -5.9751587l0 -5.9852295l0 0l46.07437 -0.07720947l0 0l0 5.9851685z" fill-rule="evenodd"/><path stroke="#d2d2d2" stroke-width="2.0" stroke-linejoin="round" stroke-linecap="butt" d="m529.0528 843.55133l-34.103943 0.05718994l-5.985199 -5.9751587l0 -5.9852295l0 0l46.07437 -0.07720947l0 0l0 5.9851685z" fill-rule="evenodd"/></g><g filter="url(#shadowFilter-p.10)"><use xlink:href="#p.10" transform=""/></g><defs><filter id="shadowFilter-p.10" filterUnits="userSpaceOnUse"><feGaussianBlur in="SourceAlpha" stdDeviation="2.0" result="blur"/><feComponentTransfer in="blur" color-interpolation-filters="sRGB"><feFuncR type="linear" slope="0" intercept="0.18039216"/><feFuncG type="linear" slope="0" intercept="0.24705882"/><feFuncB type="linear" slope="0" intercept="0.34901962"/><feFuncA type="linear" slope="0.25" intercept="0"/></feComponentTransfer></filter></defs><g id="p.10"><path fill="#d2d2d2" d="m491.26428 889.95605l7.729004 -46.337036l26.00885 0l7.729065 46.337036z" fill-rule="evenodd"/><path stroke="#d2d2d2" stroke-width="2.0" stroke-linejoin="round" stroke-linecap="butt" d="m491.26428 889.95605l7.729004 -46.337036l26.00885 0l7.729065 46.337036z" fill-rule="evenodd"/></g><g filter="url(#shadowFilter-p.11)"><use xlink:href="#p.11" transform=""/></g><defs><filter id="shadowFilter-p.11" filterUnits="userSpaceOnUse"><feGaussianBlur in="SourceAlpha" stdDeviation="2.0" result="blur"/><feComponentTransfer in="blur" color-interpolation-filters="sRGB"><feFuncR type="linear" slope="0" intercept="0.18039216"/><feFuncG type="linear" slope="0" intercept="0.24705882"/><feFuncB type="linear" slope="0" intercept="0.34901962"/><feFuncA type="linear" slope="0.25" intercept="0"/></feComponentTransfer></filter></defs><g id="p.11"><path fill="#d2d2d2" d="m569.2323 696.23517l0 -57.071716l46.07434 57.071716z" fill-rule="evenodd"/><path stroke="#d2d2d2" stroke-width="2.0" stroke-linejoin="round" stroke-linecap="butt" d="m569.2323 696.23517l0 -57.071716l46.07434 57.071716z" fill-rule="evenodd"/></g><g filter="url(#shadowFilter-p.12)"><use xlink:href="#p.12" transform=""/></g><defs><filter id="shadowFilter-p.12" filterUnits="userSpaceOnUse"><feGaussianBlur in="SourceAlpha" stdDeviation="2.0" result="blur"/><feComponentTransfer in="blur" color-interpolation-filters="sRGB"><feFuncR type="linear" slope="0" intercept="0.18039216"/><feFuncG type="linear" slope="0" intercept="0.24705882"/><feFuncB type="linear" slope="0" intercept="0.34901962"/><feFuncA type="linear" slope="0.25" intercept="0"/></feComponentTransfer></filter></defs><g id="p.12"><path fill="#d2d2d2" d="m569.2323 696.23517l46.07434 0l0 165.50037l-46.07434 0z" fill-rule="evenodd"/><path stroke="#d2d2d2" stroke-width="2.0" stroke-linejoin="round" stroke-linecap="butt" d="m569.2323 696.23517l46.07434 0l0 165.50037l-46.07434 0z" fill-rule="evenodd"/></g><g filter="url(#shadowFilter-p.13)"><use xlink:href="#p.13" transform=""/></g><defs><filter id="shadowFilter-p.13" filterUnits="userSpaceOnUse"><feGaussianBlur in="SourceAlpha" stdDeviation="2.0" result="blur"/><feComponentTransfer in="blur" color-interpolation-filters="sRGB"><feFuncR type="linear" slope="0" intercept="0.18039216"/><feFuncG type="linear" slope="0" intercept="0.24705882"/><feFuncB type="linear" slope="0" intercept="0.34901962"/><feFuncA type="linear" slope="0.25" intercept="0"/></feComponentTransfer></filter></defs><g id="p.13"><path fill="#d2d2d2" d="m609.3245 873.7476l-34.103943 0.05718994l-5.9851685 -5.9751587l0 -5.9852295l0 0l46.07428 -0.07720947l0 0l0 5.9851685z" fill-rule="evenodd"/><path stroke="#d2d2d2" stroke-width="2.0" stroke-linejoin="round" stroke-linecap="butt" d="m609.3245 873.7476l-34.103943 0.05718994l-5.9851685 -5.9751587l0 -5.9852295l0 0l46.07428 -0.07720947l0 0l0 5.9851685z" fill-rule="evenodd"/></g><g filter="url(#shadowFilter-p.14)"><use xlink:href="#p.14" transform=""/></g><defs><filter id="shadowFilter-p.14" filterUnits="userSpaceOnUse"><feGaussianBlur in="SourceAlpha" stdDeviation="2.0" result="blur"/><feComponentTransfer in="blur" color-interpolation-filters="sRGB"><feFuncR type="linear" slope="0" intercept="0.18039216"/><feFuncG type="linear" slope="0" intercept="0.24705882"/><feFuncB type="linear" slope="0" intercept="0.34901962"/><feFuncA type="linear" slope="0.25" intercept="0"/></feComponentTransfer></filter></defs><g id="p.14"><path fill="#d2d2d2" d="m571.536 889.95605l7.491089 -16.140747l26.484741 0l7.491089 16.140747z" fill-rule="evenodd"/><path stroke="#d2d2d2" stroke-width="2.0" stroke-linejoin="round" stroke-linecap="butt" d="m571.536 889.95605l7.491089 -16.140747l26.484741 0l7.491089 16.140747z" fill-rule="evenodd"/></g><g filter="url(#shadowFilter-p.15)"><use xlink:href="#p.15" transform=""/></g><defs><filter id="shadowFilter-p.15" filterUnits="userSpaceOnUse"><feGaussianBlur in="SourceAlpha" stdDeviation="2.0" result="blur"/><feComponentTransfer in="blur" color-interpolation-filters="sRGB"><feFuncR type="linear" slope="0" intercept="0.18039216"/><feFuncG type="linear" slope="0" intercept="0.24705882"/><feFuncB type="linear" slope="0" intercept="0.34901962"/><feFuncA type="linear" slope="0.25" intercept="0"/></feComponentTransfer></filter></defs><g id="p.15"><path fill="#d2d2d2" d="m454.76627 696.23193l0 -57.071716l-46.07431 57.071716z" fill-rule="evenodd"/><path stroke="#d2d2d2" stroke-width="2.0" stroke-linejoin="round" stroke-linecap="butt" d="m454.76627 696.23193l0 -57.071716l-46.07431 57.071716z" fill-rule="evenodd"/></g><g filter="url(#shadowFilter-p.16)"><use xlink:href="#p.16" transform=""/></g><defs><filter id="shadowFilter-p.16" filterUnits="userSpaceOnUse"><feGaussianBlur in="SourceAlpha" stdDeviation="2.0" result="blur"/><feComponentTransfer in="blur" color-interpolation-filters="sRGB"><feFuncR type="linear" slope="0" intercept="0.18039216"/><feFuncG type="linear" slope="0" intercept="0.24705882"/><feFuncB type="linear" slope="0" intercept="0.34901962"/><feFuncA type="linear" slope="0.25" intercept="0"/></feComponentTransfer></filter></defs><g id="p.16"><path fill="#d2d2d2" d="m454.76627 696.23193l-46.07431 0l0 165.50037l46.07431 0z" fill-rule="evenodd"/><path stroke="#d2d2d2" stroke-width="2.0" stroke-linejoin="round" stroke-linecap="butt" d="m454.76627 696.23193l-46.07431 0l0 165.50037l46.07431 0z" fill-rule="evenodd"/></g><g filter="url(#shadowFilter-p.17)"><use xlink:href="#p.17" transform=""/></g><defs><filter id="shadowFilter-p.17" filterUnits="userSpaceOnUse"><feGaussianBlur in="SourceAlpha" stdDeviation="2.0" result="blur"/><feComponentTransfer in="blur" color-interpolation-filters="sRGB"><feFuncR type="linear" slope="0" intercept="0.18039216"/><feFuncG type="linear" slope="0" intercept="0.24705882"/><feFuncB type="linear" slope="0" intercept="0.34901962"/><feFuncA type="linear" slope="0.25" intercept="0"/></feComponentTransfer></filter></defs><g id="p.17"><path fill="#d2d2d2" d="m414.67404 873.7444l34.103943 0.05718994l5.985199 -5.9751587l0 -5.9852295l0 0l-46.07434 -0.07720947l0 0l0 5.9852295z" fill-rule="evenodd"/><path stroke="#d2d2d2" stroke-width="2.0" stroke-linejoin="round" stroke-linecap="butt" d="m414.67404 873.7444l34.103943 0.05718994l5.985199 -5.9751587l0 -5.9852295l0 0l-46.07434 -0.07720947l0 0l0 5.9852295z" fill-rule="evenodd"/></g><g filter="url(#shadowFilter-p.18)"><use xlink:href="#p.18" transform=""/></g><defs><filter id="shadowFilter-p.18" filterUnits="userSpaceOnUse"><feGaussianBlur in="SourceAlpha" stdDeviation="2.0" result="blur"/><feComponentTransfer in="blur" color-interpolation-filters="sRGB"><feFuncR type="linear" slope="0" intercept="0.18039216"/><feFuncG type="linear" slope="0" intercept="0.24705882"/><feFuncB type="linear" slope="0" intercept="0.34901962"/><feFuncA type="linear" slope="0.25" intercept="0"/></feComponentTransfer></filter></defs><g id="p.18"><path fill="#d2d2d2" d="m452.46255 889.9528l-7.4910583 -16.140747l-26.484772 0l-7.4910583 16.140747z" fill-rule="evenodd"/><path stroke="#d2d2d2" stroke-width="2.0" stroke-linejoin="round" stroke-linecap="butt" d="m452.46255 889.9528l-7.4910583 -16.140747l-26.484772 0l-7.4910583 16.140747z" fill-rule="evenodd"/></g></g></svg>